<svg width="250" height="250" viewBox="0 0 250 250" fill="none" xmlns="http://www.w3.org/2000/svg">
<path d="M125.001 118.61L227.741 59.3179L125.001 0L22.2587 59.3179L125.001 118.61Z" fill="#BDD5EA"/>
<path d="M117.651 131.341L14.9092 72.0493V190.682L117.651 250V131.341Z" fill="#BDD5EA"/>
<path d="M132.352 131.341V250L235.091 190.682V72.0493L132.352 131.341Z" fill="#BDD5EA"/>
<g clip-path="url(#clip0)">
<path d="M188.978 167.46C213.466 133.051 205.276 85.4032 170.696 61.041C136.117 36.6789 88.2352 44.8229 63.7531 79.2384C39.2709 113.648 47.455 161.29 82.0401 185.652C106.721 203.04 139.352 204.379 165.385 189.081L221.948 245.029C228.055 251.427 238.217 251.683 244.646 245.605C251.075 239.534 251.333 229.422 245.231 223.025C245.038 222.821 244.851 222.634 244.646 222.442L188.978 167.46ZM126.319 172.676C98.9933 172.682 76.8395 150.654 76.8219 123.463C76.8161 96.2715 98.9524 74.2263 126.283 74.2146C153.574 74.203 175.716 96.1959 175.768 123.352C175.815 150.549 153.691 172.63 126.354 172.676C126.342 172.676 126.336 172.676 126.319 172.676Z" fill="#577399"/>
</g>
<defs>
<clipPath id="clip0">
<rect width="204" height="203" fill="white" transform="translate(46 47)"/>
</clipPath>
</defs>
</svg>
